<svg id="Layer_1" data-name="Layer 1" xmlns="http://www.w3.org/2000/svg" viewBox="0 0 10.6 15.65"><defs><style>.cls-1,.cls-2{fill:none;stroke:#000;stroke-miterlimit:10;}.cls-1{stroke-width:0.22px;}.cls-2{stroke-linecap:round;stroke-width:0.09px;}.cls-3{fill:#fff;}</style></defs><title>chrome_extension</title><circle class="cls-1" cx="7.89" cy="11.54" r="1.65"/><ellipse cx="9.67" cy="11.49" rx="0.25" ry="0.29"/><line class="cls-2" x1="9.69" y1="11.6" x2="9.69" y2="15.6"/><path d="M12.88,7a.61.61,0,0,0-.64-.59,2.75,2.75,0,0,0-1.05.31h0a9.51,9.51,0,0,0,.26,1.15s0,0,0,0c-.3.14-3.19,1.84-7.73,0,0,0,0,0,0,0A7.22,7.22,0,0,0,4,6.64l0,0a2.19,2.19,0,0,0-1-.22.7.7,0,0,0-.64.75C2.35,8,3.05,9.73,7.1,10h.23C8.21,10,13,9.64,12.88,7Z" transform="translate(-2.28 -0.2)"/><path d="M11.17,6.68a13.23,13.23,0,0,1,0-4.11,3.47,3.47,0,0,1,.22-.76C12.14,0,8,.2,7.21.21H7.12C3.29.27,3.76,1.44,3.79,1.87a2.9,2.9,0,0,0,.06.41A12.43,12.43,0,0,1,4,6.62l0,0a9.34,9.34,0,0,0,7.18.06S11.18,6.69,11.17,6.68Z" transform="translate(-2.28 -0.2)"/><path d="M7.56,13.76c-.07,0-1.07-.28-1.62,1.16h0a1.23,1.23,0,0,1-.67.57h0s-.31,0-.31-.26c0,0,0-.21.24-.17,0,0,0,0,0,0s-.24-.08-.4.15h0a.46.46,0,0,0,.43.62,1.43,1.43,0,0,0,.86-.21A3.31,3.31,0,0,1,7.46,15s.57-.18,1.63.6h0a1.27,1.27,0,0,0,1.12.12h0a.42.42,0,0,0,.11-.61A.31.31,0,0,0,9.94,15s0,0,0,0,.43.12.21.39h0s-.52.33-1-.77c0,0-.56-1.18-1.56-.9Z" transform="translate(-2.28 -0.2)"/><path class="cls-3" d="M2.57,6.92s0,1.75,2.37,2.42A3.44,3.44,0,0,1,2.57,6.92Z" transform="translate(-2.28 -0.2)"/><path class="cls-3" d="M12.57,6.93s0,1.75-2.4,2.4A3.46,3.46,0,0,0,12.57,6.93Z" transform="translate(-2.28 -0.2)"/></svg>