<svg id="Layer_1" data-name="Layer 1" xmlns="http://www.w3.org/2000/svg" viewBox="0 0 30.58 45.13"><defs><style>.cls-1,.cls-2{fill:none;stroke:#000;stroke-miterlimit:10;}.cls-1{stroke-width:0.64px;}.cls-2{stroke-linecap:round;stroke-width:0.26px;}.cls-3{fill:#fff;}</style></defs><title>chrome_extension_48px</title><circle class="cls-1" cx="22.74" cy="33.27" r="4.76"/><ellipse cx="27.89" cy="33.14" rx="0.71" ry="0.84"/><line class="cls-2" x1="27.95" y1="33.46" x2="27.95" y2="45"/><path d="M39.21,21.53a1.77,1.77,0,0,0-1.84-1.71,7.91,7.91,0,0,0-3,.9l0,0a27.09,27.09,0,0,0,.77,3.33.07.07,0,0,1,0,.08c-.86.41-9.19,5.3-22.29,0a.07.07,0,0,1-.05-.08,21.6,21.6,0,0,0,.8-3.5l-.15-.08a6.4,6.4,0,0,0-2.86-.63A2,2,0,0,0,8.64,22c.19,2.41,2.22,7.48,13.9,8.25.22,0,.44,0,.67,0C25.74,30.18,39.45,29.22,39.21,21.53Z" transform="translate(-8.63 -2)"/><path d="M34.28,20.69a38.66,38.66,0,0,1,.06-11.84A11.4,11.4,0,0,1,35,6.64C37.07,1.44,25.18,2,22.86,2h-.27C11.55,2.2,12.9,5.59,13,6.81A9.49,9.49,0,0,0,13.16,8a36.67,36.67,0,0,1,.33,12.52.07.07,0,0,0,0,.07c9.12,4.57,19.6.71,20.72.17A.06.06,0,0,0,34.28,20.69Z" transform="translate(-8.63 -2)"/><path d="M23.86,41.12c-.19-.06-3.09-.82-4.67,3.34h0a3.58,3.58,0,0,1-1.92,1.63h0c-.16,0-.89.15-.89-.74a.52.52,0,0,1,.68-.5c.05,0,.08-.06,0-.08-.25-.15-.7-.24-1.15.43h0A1.31,1.31,0,0,0,17.18,47a4.15,4.15,0,0,0,2.46-.59,9.71,9.71,0,0,1,3.93-1.78c.12,0,1.63-.54,4.69,1.71h0s1.83,1.15,3.25.37h0a1.24,1.24,0,0,0,.3-1.78.84.84,0,0,0-1.07-.21,0,0,0,0,0,0,.08c.34.08,1.26.35.6,1.13h0c-.1.06-1.51.95-2.94-2.2,0,0-1.63-3.41-4.52-2.6Z" transform="translate(-8.63 -2)"/><path class="cls-3" d="M9.47,21.37s-.08,5.06,6.83,7C15.39,27.81,10.74,26.82,9.47,21.37Z" transform="translate(-8.63 -2)"/><path class="cls-3" d="M38.31,21.42s0,5.06-6.92,6.9C32.31,27.78,37,26.85,38.31,21.42Z" transform="translate(-8.63 -2)"/></svg>