<svg id="Layer_1" data-name="Layer 1" xmlns="http://www.w3.org/2000/svg" viewBox="0 0 83.58 123.35"><defs><style>.cls-1,.cls-2{fill:none;stroke:#000;stroke-miterlimit:10;}.cls-1{stroke-width:1.76px;}.cls-2{stroke-linecap:round;stroke-width:0.7px;}.cls-3{fill:#fff;}</style></defs><title>Chrome_extension_128px</title><circle class="cls-1" cx="62.16" cy="90.94" r="13.01"/><ellipse cx="76.23" cy="90.59" rx="1.93" ry="2.29"/><line class="cls-2" x1="76.4" y1="91.46" x2="76.4" y2="123"/><path d="M106,55.38a4.83,4.83,0,0,0-5-4.67,21.67,21.67,0,0,0-8.3,2.45l-.11.06a73.76,73.76,0,0,0,2.09,9.11.18.18,0,0,1-.1.22c-2.34,1.12-25.13,14.49-60.94,0a.19.19,0,0,1-.11-.23,60.52,60.52,0,0,0,2.19-9.56l-.42-.21a17.42,17.42,0,0,0-7.84-1.74,5.49,5.49,0,0,0-5,5.92c.52,6.59,6.07,20.44,38,22.54a16,16,0,0,0,1.83,0C69.22,79,106.69,76.39,106,55.38Z" transform="translate(-22.45 -2)"/><path d="M92.57,53.08a104.9,104.9,0,0,1,.16-32.35,28.73,28.73,0,0,1,1.75-6C100.19.46,67.68,2,61.34,2.06c-.24,0-.49,0-.73,0-30.18.49-26.5,9.76-26.26,13.1a27.82,27.82,0,0,0,.47,3.26,99.94,99.94,0,0,1,.92,34.21.19.19,0,0,0,.1.2c24.93,12.49,53.56,1.94,56.62.46A.2.2,0,0,0,92.57,53.08Z" transform="translate(-22.45 -2)"/><path d="M64.07,108.93c-.52-.16-8.43-2.24-12.75,9.12h0c-.07.13-2.08,3.66-5.26,4.46h0c-.43,0-2.43.39-2.43-2a1.41,1.41,0,0,1,1.86-1.37.12.12,0,0,0,.08-.23c-.69-.4-1.92-.65-3.14,1.17,0,0,0,0,0,0-.08.29-1.19,4.39,3.44,4.85a11.31,11.31,0,0,0,6.71-1.62c.24-.09,5.35-4.23,10.75-4.86.32.06,4.46-1.49,12.82,4.67h0s5,3.13,8.87,1h0c.13-.1,2.92-2.27.8-4.86a2.33,2.33,0,0,0-2.92-.58.13.13,0,0,0,0,.24c.95.2,3.44,1,1.64,3.08l0,0c-.26.17-4.13,2.6-8-6,0,0-4.45-9.3-12.34-7.1Z" transform="translate(-22.45 -2)"/><path class="cls-3" d="M24.75,55s-.23,13.81,18.66,19.11C40.91,72.55,28.21,69.83,24.75,55Z" transform="translate(-22.45 -2)"/><path class="cls-3" d="M103.57,55.08s.05,13.82-18.92,18.86C87.17,72.46,99.91,69.91,103.57,55.08Z" transform="translate(-22.45 -2)"/></svg>